<svg width="240" height="184" viewBox="0 0 240 184" fill="none" xmlns="http://www.w3.org/2000/svg">
<mask id="mask0_75_3167" style="mask-type:alpha" maskUnits="userSpaceOnUse" x="0" y="28" width="240" height="148">
<path d="M0 63.1613C0 51.8366 5.34652 41.6989 14.2846 39.1049C32.5788 33.7954 66.6632 28 120 28C173.337 28 207.421 33.7954 225.715 39.1049C234.653 41.6989 240 51.8366 240 63.1613V140.839C240 152.163 234.653 162.301 225.715 164.895C207.421 170.205 173.337 176 120 176C66.6632 176 32.5788 170.205 14.2846 164.895C5.34652 162.301 0 152.163 0 140.839V63.1613Z" fill="#89BDFF"/>
</mask>
<g mask="url(#mask0_75_3167)">
<path d="M0 63.1613C0 51.8366 5.34652 41.6989 14.2846 39.1049C32.5788 33.7954 66.6632 28 120 28C173.337 28 207.421 33.7954 225.715 39.1049C234.653 41.6989 240 51.8366 240 63.1613V140.839C240 152.163 234.653 162.301 225.715 164.895C207.421 170.205 173.337 176 120 176C66.6632 176 32.5788 170.205 14.2846 164.895C5.34652 162.301 0 152.163 0 140.839V63.1613Z" fill="#89BDFF"/>
<path d="M198.119 84.7787L120.061 110.428L41.8831 84.7788C41.4452 84.6351 41.4418 84.0168 41.878 83.8683L119.906 57.3027C120.007 57.2685 120.115 57.2686 120.216 57.3028L198.124 83.8684C198.56 84.017 198.557 84.6349 198.119 84.7787Z" fill="#5E361F"/>
<path d="M198.119 84.7787L120.061 110.428L120 84.3311L120.058 58.6442C120.059 57.9597 120.733 57.479 121.381 57.7L198.124 83.8684C198.56 84.017 198.557 84.6349 198.119 84.7787Z" fill="#835439"/>
<path d="M120 198.579L120.061 110.428L196.966 85.3614C198.207 84.9569 199.481 85.8817 199.481 87.1868V170.733C199.481 171.554 198.959 172.285 198.182 172.55L120.635 199.033C120.324 199.14 120 198.908 120 198.579Z" fill="#855235"/>
<path d="M134.883 127.504L120.061 110.428L197.578 83.812C198.302 83.5637 199.103 83.7682 199.619 84.3327L212.947 98.9147C213.917 99.9765 213.483 101.685 212.124 102.154L137.046 128.084C136.274 128.35 135.418 128.121 134.883 127.504Z" fill="#CFA891"/>
<path d="M120.001 198.577L120.061 110.427L43.0374 85.1572C41.7958 84.7499 40.5188 85.6748 40.5188 86.9815V170.526C40.5188 171.345 41.0391 172.075 41.814 172.341L119.364 199.031C119.676 199.138 120 198.907 120.001 198.577Z" fill="#C49275"/>
<path d="M105.117 127.512L120.061 110.428L42.5389 83.8104C41.8181 83.5629 41.0192 83.7651 40.503 84.3257L27.0698 98.9133C26.0932 99.9738 26.5255 101.688 27.8882 102.159L102.959 128.086C103.728 128.351 104.582 128.124 105.117 127.512Z" fill="#CFA891"/>
</g>
<rect x="75" y="31.1489" width="11.524" height="29.9624" rx="5.762" transform="rotate(-45 75 31.1489)" fill="#D3DDEB"/>
<rect x="83.1487" y="37.3353" width="11.524" height="29.9624" rx="5.762" transform="rotate(-135 83.1487 37.3353)" fill="#D3DDEB"/>
<rect x="76" y="36" width="12" height="30" rx="6" transform="rotate(-90 76 36)" fill="#3D76C9"/>
<rect x="115.331" y="84.4456" width="7.37536" height="9.21921" rx="3.68768" fill="#EEF3FA"/>
<rect x="142.311" y="54.9464" width="7.37536" height="10.357" rx="3.68768" transform="rotate(74.0354 142.311 54.9464)" fill="#EEF3FA"/>
<rect x="160.322" y="53.1003" width="7.37536" height="10.357" rx="3.68768" transform="rotate(74.0354 160.322 53.1003)" fill="#EEF3FA"/>
<rect x="163.732" y="38.8105" width="7.37536" height="10.357" rx="3.68768" fill="#EEF3FA"/>
<rect x="150.977" y="32.2086" width="7.37536" height="10.357" rx="3.68768" transform="rotate(-77.7919 150.977 32.2086)" fill="#EEF3FA"/>
<rect x="133.05" y="32.447" width="7.37536" height="10.357" rx="3.68768" transform="rotate(-90 133.05 32.447)" fill="#EEF3FA"/>
<rect x="114.409" y="32.8181" width="7.37536" height="10.357" rx="3.68768" transform="rotate(-90 114.409 32.8181)" fill="#EEF3FA"/>
<rect x="121.555" y="65.2402" width="7.37536" height="11.0259" rx="3.68768" transform="rotate(30.2504 121.555 65.2402)" fill="#EEF3FA"/>
</svg>
