<svg width="389" height="80" viewBox="0 0 389 80" fill="none" xmlns="http://www.w3.org/2000/svg">
<g clip-path="url(#clip0_476_330)">
<path d="M5.884 39.8703C6.02668 31.1598 8.88715 23.516 14.7847 17.0273C20.4785 10.7628 27.5516 7.053 35.9087 6.13574C47.7039 4.8448 57.6986 8.65649 65.7229 17.4893C66.3208 18.1416 66.2324 18.5356 65.6277 19.1336C57.9024 26.8249 50.1975 34.5366 42.4926 42.2551C40.3863 44.3614 39.9447 47.5548 41.3851 49.9804C43.5253 53.5747 48.3154 54.2134 51.2846 51.2646C55.4225 47.1607 59.4991 42.9889 63.6777 38.919C66.4567 36.2148 69.0861 33.368 71.8786 30.6774C72.6125 29.9707 72.7212 29.9775 72.9454 30.9559C76.1524 44.5245 72.8842 56.2381 62.5363 65.6553C55.5855 71.9809 47.1672 74.6715 37.8112 74.1076C29.7326 73.6184 22.6935 70.5201 16.7416 64.9894C15.9466 64.2556 15.2264 63.4607 14.4858 62.6793C13.6025 61.7417 13.6093 61.6941 14.513 60.7904C22.2383 53.0583 29.9704 45.333 37.6957 37.5941C39.5098 35.7732 40.0126 33.035 38.9798 30.7249C37.0978 26.5191 31.9136 25.5951 28.5979 28.8972C22.0344 35.4403 15.4846 42.0037 8.93471 48.5604C8.64934 48.8458 8.36398 49.1447 8.07182 49.4233C7.44672 50.028 7.33801 50.0076 7.10021 49.1311C6.27808 46.1008 5.8772 43.0161 5.884 39.8703Z" fill="#174CA1"/>
<path d="M0 40.5226C0.190245 29.9572 3.45159 21.0496 10.1509 13.501C16.7212 6.09499 24.9697 1.69217 34.7605 0.380842C46.1956 -1.15471 56.3805 1.99113 65.3832 9.13212C67.0954 10.491 68.6241 12.0605 70.1053 13.664C70.4994 14.0921 70.547 14.4318 70.0985 14.8463C69.6025 15.3015 69.1269 15.7703 68.6785 16.2731C68.2436 16.7623 67.9447 16.64 67.5574 16.1984C61.5035 9.36992 54.0092 5.12338 44.925 3.95473C34.346 2.59584 24.8474 5.30003 16.6397 12.1421C9.89275 17.7679 5.75491 24.9836 4.16501 33.6262C3.13225 39.252 3.438 44.8302 5.10944 50.2998C5.35404 51.0947 5.25212 51.6111 4.62703 52.1275C4.13783 52.5352 3.69619 53.0108 3.26134 53.4796C2.83329 53.9416 2.56831 54.03 2.31691 53.3097C1.33851 50.5172 0.645474 47.6635 0.326134 44.7283C0.169861 43.1656 0.0883281 41.5961 0 40.5226Z" fill="#174CA1"/>
<path d="M79.9981 40.0267C79.8146 51.8355 75.439 61.8233 66.7013 69.7661C60.1854 75.6908 52.4329 79.0813 43.6273 79.7879C30.2762 80.8614 19.1264 76.2344 10.049 66.4572C9.59379 65.968 9.56662 65.5943 10.0762 65.1458C10.6877 64.6091 11.1973 63.6986 11.8699 63.5559C12.6785 63.3861 13.0386 64.5207 13.5821 65.0779C19.2623 70.8939 26.0568 74.6105 34.0879 75.9218C42.9139 77.3691 51.2099 75.7792 58.8605 71.1453C67.1973 66.0971 72.6261 58.7794 75.2148 49.4098C77.0289 42.826 76.8998 36.2082 74.9498 29.6515C74.7459 28.9789 74.7935 28.5033 75.3506 28.0344C75.8602 27.6064 76.3019 27.09 76.7843 26.6212C77.4026 26.0165 77.5113 26.0369 77.8034 26.8726C78.6392 29.271 79.2371 31.7374 79.604 34.2514C79.8758 36.1674 80.0184 38.0835 79.9981 40.0267Z" fill="#174CA1"/>
<path d="M157.831 66.9562C138.157 66.9562 118.482 66.9562 98.8082 66.9562C98.2157 66.9562 97.6233 66.9562 97.0309 66.9286C96.0665 66.8873 95.7496 66.4326 96.2042 65.5371C97.8575 62.2581 100.379 60.1501 104.14 59.7643C104.953 59.6817 105.793 59.7368 106.62 59.7368C143.667 59.7368 180.701 59.7368 217.749 59.7368C220.945 59.7368 221.276 59.475 222.116 56.3338C225.023 45.6149 227.958 34.8961 230.796 24.1634C231.196 22.6755 231.884 22.0555 233.372 22.2071C234.02 22.2759 234.667 22.1933 235.315 22.2346C237.974 22.3586 239.255 24.0808 238.553 26.6847C235.659 37.4724 232.739 48.2464 229.832 59.0204C228.702 63.1949 226.139 65.7713 221.772 66.4326C219.898 66.7082 218.038 66.9699 216.137 66.9699C196.711 66.9562 177.271 66.9562 157.831 66.9562Z" fill="#174CA1"/>
<path d="M276.11 33.2016C279.416 30.2808 282.792 27.4426 286.016 24.4253C287.669 22.8685 289.378 21.973 291.692 22.221C293.277 22.3863 294.875 22.2485 296.473 22.2623C296.928 22.2623 297.548 22.1383 297.713 22.6894C297.864 23.2129 297.313 23.4885 296.969 23.7916C293.29 26.8502 289.667 29.9639 285.906 32.926C284.514 34.0144 284.225 35.0064 284.79 36.6873C286.47 41.6747 287.972 46.7172 289.529 51.7322C290.108 53.5784 289.97 53.7988 288.041 53.8126C285.975 53.8402 283.908 53.7713 281.841 53.8264C280.546 53.8539 279.926 53.289 279.609 52.0629C278.81 48.9767 277.984 45.8906 277.088 42.832C276.812 41.8676 276.689 40.476 275.297 40.5587C273.974 40.6414 273.382 41.7574 273.065 42.9973C272.28 46.0284 271.384 49.0318 270.668 52.0766C270.337 53.4544 269.607 53.8953 268.298 53.8402C266.824 53.7713 265.35 53.8402 263.875 53.8264C261.947 53.7988 261.823 53.6473 262.332 51.746C264.551 43.4657 266.783 35.1993 269.001 26.9328C270.048 23.0614 271.136 19.1899 272.114 15.2909C272.473 13.8718 273.051 13.2518 274.636 13.2518C280.036 13.2932 280.849 14.2438 279.472 19.4655C278.287 23.9707 277.06 28.4621 275.848 32.9536C275.903 33.0225 276 33.1051 276.11 33.2016Z" fill="#174CA1"/>
<path d="M375.804 27.8424C374.095 27.8562 372.497 28.1179 371.202 29.3579C370.651 29.8952 369.976 30.0054 369.246 30.0054C367.771 30.0054 366.297 30.0192 364.823 30.0054C364.189 29.9916 363.376 30.2396 363.018 29.5921C362.619 28.8619 363.294 28.2695 363.666 27.7046C365.305 25.2247 367.482 23.3509 370.293 22.3176C374.881 20.6368 379.565 20.5954 384.208 22.0421C387.997 23.2132 389.498 26.2993 388.41 30.0881C387.335 33.8355 386.357 37.6106 385.31 41.3718C383.312 48.5636 377.512 53.1791 370.086 53.5511C367.909 53.6613 365.76 53.9506 363.556 53.5373C359.023 52.7106 356.942 49.7898 357.755 45.2708C358.885 38.9332 361.833 35.4889 370.982 33.8907C372.607 33.6013 374.261 33.436 375.873 33.1191C376.796 32.94 377.691 32.6231 378.545 32.2374C379.648 31.7414 380.392 30.8734 380.199 29.5921C380.006 28.3108 378.849 28.2419 377.884 28.0353C377.223 27.8975 376.506 27.9113 375.804 27.8424ZM378.201 37.6657C375.074 38.9883 371.726 39.0847 368.681 40.3523C368.46 40.4487 368.254 40.5589 368.061 40.6829C366.504 41.6749 365.416 44.1411 365.967 45.5739C366.738 47.5579 368.488 47.1997 370.045 47.0757C374.578 46.6899 377.801 43.0527 378.201 37.6657Z" fill="#174CA1"/>
<path d="M253.79 27.8419C251.944 27.773 250.263 28.1588 248.858 29.4401C248.293 29.9636 247.59 30.0187 246.874 30.0187C245.455 30.0187 244.036 30.0325 242.617 30.0187C241.983 30.005 241.184 30.1978 240.853 29.509C240.55 28.8477 241.156 28.2966 241.487 27.7592C243.154 25.114 245.496 23.2816 248.417 22.2207C252.716 20.6639 257.138 20.6776 261.492 21.8487C265.625 22.9647 267.251 25.8304 266.204 29.9636C265.102 34.3173 264.055 38.6985 262.58 42.9144C260.211 49.6929 254.975 52.8755 248.045 53.5093C245.827 53.7159 243.609 54.0053 241.349 53.5231C236.817 52.5586 234.998 50.1338 235.549 45.5597C236.224 39.9936 239.476 36.3701 245.276 34.6755C247.949 33.8902 250.732 33.6973 253.46 33.1875C254.507 32.9947 255.54 32.7191 256.477 32.2231C257.469 31.6996 258.227 30.9143 258.13 29.7156C258.02 28.4343 256.876 28.269 255.912 28.0486C255.223 27.897 254.493 27.9108 253.79 27.8419ZM246.874 47.1441C252.013 47.0752 255.141 43.5344 256.022 38.7123C256.215 37.6514 255.595 37.8856 254.975 38.051C252.977 38.5607 250.994 39.0705 248.996 39.5527C247.783 39.8421 246.599 40.2003 245.579 40.9305C244.132 41.9776 243.292 44.361 243.898 45.8215C244.518 47.2819 245.896 47.0201 246.874 47.1441Z" fill="#174CA1"/>
<path d="M314.453 21.1606C316.836 21.0917 319.178 21.257 321.396 22.2076C324.538 23.544 325.998 26.0102 325.213 29.303C324.11 33.8909 322.967 38.5063 321.424 42.9565C319.164 49.5145 314.081 52.7109 307.385 53.4824C305.18 53.7304 302.948 54.0197 300.689 53.6064C295.453 52.6558 293.456 49.6661 294.599 44.4582C295.743 39.2228 299.049 36.178 304.051 34.7038C306.778 33.9047 309.617 33.7118 312.4 33.1745C313.75 32.9127 315.059 32.5545 316.106 31.6314C317.608 30.295 317.304 28.683 315.362 28.2422C312.73 27.6497 310.071 27.4293 307.798 29.3857C307.274 29.8403 306.682 30.0194 306.007 30.0194C304.354 30.0194 302.7 30.0608 301.047 30.0194C299.463 29.9781 299.256 29.5786 300.096 28.2008C302.811 23.7783 306.902 21.6428 311.973 21.1881C312.785 21.0917 313.626 21.1606 314.453 21.1606ZM305.718 47.1448C310.843 47.0897 313.984 43.5902 314.893 38.713C315.086 37.6659 314.439 37.8037 313.833 38.0241C311.89 38.7268 309.865 39.1126 307.839 39.5534C306.613 39.8152 305.442 40.2147 304.436 40.9449C303.031 41.9507 302.191 44.2515 302.687 45.6568C303.251 47.255 304.684 47.0208 305.718 47.1448Z" fill="#174CA1"/>
<path d="M198.819 42.7494C199.466 42.7494 200.127 42.8045 200.761 42.7356C202.125 42.584 202.897 43.0249 202.91 44.5267C202.91 45.188 203.269 45.7528 203.778 46.2213C205.845 48.0537 211.356 47.6541 213.175 45.5186C214.222 44.2924 214.029 43.1214 212.582 42.3085C211.384 41.6334 210.033 41.3716 208.711 41.0823C206.63 40.6276 204.591 40.0352 202.635 39.181C198.832 37.5277 197.496 34.8411 198.708 30.8732C200.155 26.1338 203.53 23.2543 208.201 21.8903C211.604 20.8984 215.076 20.8295 218.548 21.5872C222.488 22.4552 224.679 24.9214 224.899 28.6413C225.037 30.9421 224.541 31.4794 222.254 31.4794C221.372 31.4794 220.477 31.4519 219.595 31.4794C218.286 31.5208 217.391 30.9421 216.674 29.8537C214.993 27.2773 210.364 26.7262 208.036 28.7515C206.617 29.9777 206.727 31.259 208.408 32.1132C210.102 32.9674 211.948 33.4496 213.808 33.8078C215.737 34.1798 217.57 34.8687 219.333 35.6953C222.419 37.1557 223.494 39.5254 222.64 42.8458C221.482 47.3373 218.782 50.5612 214.428 52.1731C209.73 53.9229 204.853 54.3086 199.976 53.0411C194.479 51.622 194.065 48.2466 194.52 44.2098C194.63 43.2591 195.154 42.7218 196.173 42.7356C197.055 42.7769 197.937 42.7631 198.819 42.7494C198.819 42.7631 198.819 42.7631 198.819 42.7494Z" fill="#3585C6"/>
<path d="M156.288 21.1331C158.781 21.1744 161.261 21.3397 163.576 22.373C166.359 23.6268 167.75 26.0378 167.048 28.9862C165.918 33.6981 164.788 38.4375 163.218 43.0116C160.986 49.5146 155.929 52.6834 149.289 53.4274C146.96 53.6891 144.618 53.9509 142.235 53.51C137.633 52.642 135.663 50.1345 136.324 45.5053C137.013 40.6143 139.534 37.1011 144.288 35.3238C146.919 34.3456 149.633 33.8772 152.389 33.519C154.028 33.3123 155.668 33.0368 157.169 32.2652C158.23 31.7141 159.029 30.8599 158.878 29.6062C158.726 28.256 157.486 28.0907 156.453 27.9667C153.959 27.6773 151.479 27.5809 149.44 29.5097C148.931 29.9919 148.255 29.9919 147.594 30.0057C146.175 30.0057 144.756 30.0195 143.337 30.0057C142.758 29.9919 142.028 30.1848 141.697 29.6062C141.312 28.9449 141.918 28.38 142.248 27.8564C144.425 24.4121 147.608 22.4281 151.521 21.5739C153.091 21.2295 154.689 21.0642 156.288 21.1331ZM156.825 37.5971C153.89 38.8095 150.928 39.0713 148.145 39.9944C146.354 40.5868 145.087 41.7028 144.508 43.5352C143.819 45.7533 144.646 46.9658 146.947 47.0897C152.416 47.3791 156.246 43.8107 156.825 37.5971Z" fill="#3585C6"/>
<path d="M166.648 53.7849C161.592 53.7987 162.501 53.8401 163.59 49.7206C165.078 44.0719 166.51 38.3818 168.329 32.8295C171.043 24.5492 180.963 19.7134 189.298 22.3449C194.437 23.9706 196.421 26.7536 195.471 32.0717C194.217 39.0569 191.916 45.7803 190.153 52.6414C190.07 52.9583 189.849 53.3027 189.588 53.4956C188.802 54.0881 184.683 53.7712 183.746 53.0823C182.272 52.0077 182.479 50.5886 182.878 49.0869C184.27 43.9616 185.675 38.8227 186.998 33.6837C187.865 30.3082 186.474 28.586 182.988 28.5585C179.475 28.5309 177.271 30.2255 176.251 33.9041C174.708 39.484 173.206 45.0776 171.718 50.6712C170.892 53.7712 170.905 53.7712 167.723 53.7712C167.351 53.7849 167.006 53.7849 166.648 53.7849Z" fill="#3585C6"/>
<path d="M349.309 53.8128C348.483 53.7577 346.953 53.6337 345.424 53.5372C342.393 53.3581 341.139 51.9391 341.732 48.8529C342.283 45.9597 343.137 43.1215 343.895 40.2696C346.113 31.9893 348.428 23.7504 350.536 15.4427C351.032 13.4725 351.941 12.7698 353.842 13.0178C354.49 13.1005 355.151 13.0591 355.785 13.1694C357.934 13.5689 358.912 15.0431 358.43 17.151C358.155 18.3635 357.838 19.5621 357.466 20.7469C357.121 21.8354 357.424 22.3314 358.595 22.2349C358.719 22.2211 358.83 22.2211 358.954 22.2349C359.835 22.3865 361.075 21.7665 361.516 22.8274C361.916 23.7642 361.241 24.77 360.717 25.6242C359.835 27.0708 358.513 27.9663 356.859 28.1868C355.812 28.3246 355.316 28.7516 355.055 29.7574C353.732 34.8413 352.327 39.9114 351.004 44.9952C350.549 46.7174 351.004 47.2272 352.809 47.3512C355.096 47.5027 355.096 47.5027 354.531 49.6658C354.462 49.9551 354.38 50.2307 354.297 50.52C353.374 53.8128 353.374 53.8128 349.309 53.8128Z" fill="#174CA1"/>
<path d="M108.149 53.7851C107.171 53.7162 105.587 53.606 104.002 53.482C101.578 53.3029 100.393 51.9665 100.489 49.5278C100.558 48.0261 101.109 46.6484 101.495 45.2293C104.181 35.1855 106.923 25.1693 109.582 15.1256C109.954 13.7203 110.615 13.2381 112.048 13.2381C117.339 13.2105 118.124 14.2163 116.691 19.3553C116.581 19.7548 116.498 20.1681 116.374 20.5539C116.016 21.6837 116.374 22.2072 117.587 22.2761C118.524 22.3312 119.833 21.8077 120.232 23.0614C120.618 24.26 119.805 25.3209 119.047 26.244C118.193 27.2773 117.091 27.98 115.741 28.1453C114.639 28.2831 114.115 28.8066 113.839 29.8675C112.544 34.8411 111.18 39.7872 109.872 44.7609C109.334 46.7999 109.748 47.3924 111.883 47.3648C113.509 47.3372 114.115 47.8057 113.426 49.4176C113.288 49.7345 113.247 50.1065 113.151 50.4509C112.283 53.7988 112.283 53.7988 108.149 53.7851Z" fill="#3585C6"/>
<path d="M324.965 53.8129C320.597 53.8129 320.542 53.7991 321.686 49.6521C323.05 44.6922 323.959 39.6083 325.929 34.8413C328.988 27.4566 334.65 23.4612 342.545 22.5519C347.546 21.9732 346.885 22.3314 345.783 26.3958C345.755 26.506 345.714 26.63 345.686 26.7402C344.708 30.4739 344.708 30.4877 340.878 30.9148C336.648 31.397 334.526 33.2569 333.3 37.6933C332.088 42.0745 330.972 46.4833 329.787 50.8783C328.988 53.8129 328.974 53.8129 325.847 53.8129C325.557 53.8129 325.254 53.8129 324.965 53.8129Z" fill="#174CA1"/>
<path d="M118.483 53.7848C113.784 53.7848 114.115 54.0466 115.314 49.7756C116.526 45.4495 117.532 41.0682 118.896 36.7835C121.679 28.0624 127.851 23.2816 136.999 22.5238C140.43 22.2345 140.43 22.2345 139.576 25.5549C139.273 26.7535 138.859 27.9384 138.625 29.1508C138.363 30.4596 137.606 30.8041 136.366 30.8316C130.386 30.9556 128.306 32.6089 126.721 38.4092C125.564 42.6251 124.421 46.8548 123.305 51.0707C122.588 53.7711 122.602 53.771 119.736 53.7848C119.309 53.7848 118.896 53.7848 118.483 53.7848Z" fill="#3585C6"/>
<path d="M236.252 19.7683C232.022 19.7821 231.994 19.7683 233.124 15.7177C233.413 14.6569 233.289 13.1413 234.957 13.0862C236.996 13.0174 239.214 12.5627 240.702 14.5053C241.845 15.9795 241.074 17.5639 240.564 19.0656C240.357 19.6581 239.82 19.7683 239.255 19.7821C238.263 19.7821 237.257 19.7683 236.252 19.7683Z" fill="#174CA1"/>
</g>
<defs>
<clipPath id="clip0_476_330">
<rect width="389" height="80" fill="white"/>
</clipPath>
</defs>
</svg>
