<svg width="766" height="625" viewBox="0 0 766 625" fill="none" xmlns="http://www.w3.org/2000/svg">
<g clip-path="url(#clip0_1_24)">
<mask id="mask0_1_24" style="mask-type:luminance" maskUnits="userSpaceOnUse" x="-114" y="-184" width="993" height="993">
<path d="M878.74 -183.87H-113.39V808.26H878.74V-183.87Z" fill="white"/>
</mask>
<g mask="url(#mask0_1_24)">
<path d="M260.38 79.07C238.267 101.157 222.573 128.84 214.978 159.157C207.383 189.474 208.172 221.286 217.26 251.19L324.82 143.52C330.96 137.56 339.198 134.254 347.755 134.318C356.312 134.381 364.5 137.809 370.551 143.859C376.601 149.91 380.029 158.098 380.092 166.655C380.156 175.212 376.85 183.45 370.89 189.59L249.45 311.06C252.89 315.18 256.45 319.23 260.38 323.12C327.74 390.49 437.03 390.49 504.38 323.12C526.48 301.052 542.167 273.392 549.764 243.098C557.361 212.804 556.582 181.015 547.51 151.13L439.82 258.8C433.646 264.526 425.493 267.636 417.074 267.477C408.655 267.319 400.625 263.904 394.67 257.95C388.716 251.995 385.301 243.965 385.143 235.546C384.984 227.127 388.094 218.974 393.82 212.8L515.35 91.13C511.92 87.02 508.25 82.96 504.35 79.04C471.982 46.7046 428.102 28.5415 382.35 28.5415C336.598 28.5415 292.718 46.7046 260.35 79.04" fill="#17519D"/>
<path d="M181.27 204.63C181.228 228.994 185.497 253.173 193.88 276.05L207.08 262.63C201.096 243.879 198.06 224.313 198.08 204.63C198.07 101.13 280.7 17.13 382.69 17.13C439.75 17.13 490.78 43.45 524.69 84.79L536.61 72.72C499.68 28.3 444.47 0 382.74 0C271.48 0 181.32 91.62 181.32 204.63" fill="#17519D"/>
<path d="M558.36 140.47C564.318 159.126 567.334 178.596 567.3 198.18C567.3 301.79 484.7 385.73 382.71 385.73C325.71 385.73 274.71 359.53 240.9 318.33L229.01 330.33C265.93 374.62 321.08 402.82 382.71 402.82C493.94 402.82 584.1 311.14 584.1 198.16C584.101 173.937 579.874 149.9 571.61 127.13L558.36 140.47Z" fill="#17519D"/>
<path d="M39.91 574.29C37.64 574.29 36.06 573.74 35.21 572.64C34.8397 572.037 34.6176 571.354 34.562 570.648C34.5064 569.943 34.6188 569.234 34.89 568.58L47.11 522.29H49.54C52.4402 522.224 55.2364 521.197 57.49 519.37C59.9239 517.513 61.658 514.887 62.41 511.92L63.48 507.92H50.87L54.7 493.53C55.0988 492.334 55.216 491.062 55.0426 489.813C54.8691 488.564 54.4097 487.372 53.7 486.33C53.031 485.368 52.1311 484.589 51.0828 484.064C50.0344 483.54 48.8713 483.288 47.7 483.33H36.83L12.71 574.65C11.35 579.87 11.51 583.72 13.23 586.19C14.56 588.1 16.96 589.24 20.23 589.49C24.89 589.85 29.37 590.05 33.68 590.05C36.44 590.05 39.22 589.95 41.82 589.82L45.93 574.29H39.91Z" fill="#3383C5"/>
<path d="M112.52 507.91C106.916 507.925 101.338 508.658 95.92 510.09C90.4508 511.48 85.2501 513.767 80.53 516.86C75.3729 520.382 70.9282 524.847 67.43 530.02C63.3345 536.232 60.328 543.097 58.54 550.32L48.04 590.03H68.85L80.1 547.66C81.76 541.373 84.4267 536.75 88.1 533.79C91.77 530.87 96.63 529.34 102.66 529.34H109.47L115.14 507.91H112.52Z" fill="#3383C5"/>
<path d="M167.71 575.05C171.85 570.48 175.06 563.97 177.24 555.76L184.73 527.43C186.637 520.097 185.24 514.39 180.54 510.31C175.91 506.45 167.83 504.51 156.46 504.51C146.37 504.51 137.85 506.88 131.17 511.61C125.554 515.334 121.181 520.652 118.61 526.88H138.61C140.135 524.709 142.315 523.083 144.83 522.24C147.441 521.355 150.183 520.915 152.94 520.94C155.839 520.981 158.716 521.463 161.47 522.37C164.55 523.377 165.673 525.54 164.84 528.86C163.7 533.1 158.32 535.92 148.84 537.19C146.96 537.41 145.28 537.64 143.75 537.93C142.491 538.245 141.198 538.409 139.9 538.42C132.469 539.442 125.324 541.967 118.9 545.84C113 549.51 108.82 555.73 106.55 564.29C104.12 573.5 105.12 580.14 109.46 584.07C113.8 588 119.74 590.07 127 590.07C131.314 590.04 135.624 589.78 139.91 589.29C145.005 588.739 149.969 587.325 154.59 585.11C159.622 582.72 164.106 579.315 167.76 575.11M149.54 568.92C145.285 572.307 139.978 574.097 134.54 573.98C130.95 573.98 128.42 573.07 126.93 571.39C125.56 569.39 125.24 566.81 126.08 563.6C126.86 560.991 128.229 558.597 130.08 556.6C132.847 554.604 135.99 553.192 139.32 552.45L146.78 550.9C151.228 549.971 155.58 548.632 159.78 546.9L160.4 546.64L158.16 555.03C156.876 560.488 153.837 565.374 149.51 568.94" fill="#3383C5"/>
<path d="M254.23 513.13C247.98 508.43 240.29 506 231.41 506C222.257 506.538 213.354 509.202 205.41 513.78C197.01 518.45 190.88 527.92 187.19 541.89L174.42 590.03H195.26L209.2 537.38C210.5 532.38 212.99 528.6 216.5 526.3C219.708 524.068 223.512 522.849 227.42 522.8C229.129 522.733 230.835 523.011 232.434 523.618C234.034 524.224 235.495 525.147 236.73 526.33C239.16 528.66 239.73 532.46 238.41 537.51L227.19 579.89C226.42 582.89 226.64 585.3 228.04 587.21C229.44 589.12 231.6 590.03 234.55 590.03H245.03L257.8 541.73C261.59 527.4 260.39 517.8 254.23 513.13Z" fill="#3383C5"/>
<path d="M331.73 511.54C326.73 506.87 318.9 504.54 308.39 504.54C298.63 504.54 290.01 506.93 282.68 511.6C275.49 516.76 270.82 523.27 268.74 531.05C267.15 537.15 267.84 542.05 270.85 545.71C273.54 549.37 279.96 552.58 289.95 555.24C292.496 556.047 295.096 556.675 297.73 557.12C303.43 558.45 306.87 560.12 308.2 562.4C308.512 562.923 308.713 563.504 308.791 564.108C308.868 564.712 308.82 565.325 308.65 565.91C308.04 568.47 306.16 570.54 303.27 572.03C300.054 573.533 296.54 574.289 292.99 574.24C287.84 574.24 283.88 573.17 281.32 571.06C278.99 568.99 278.21 565.84 278.99 561.79H258.76L258.56 562.47C256.16 571.47 257.33 578.39 261.87 583.05C266.41 587.71 274.32 590.05 285.87 590.05C298.03 590.05 307.95 587.81 315.18 583.24C322.824 578.544 328.301 571.017 330.42 562.3C332.07 556.2 331.42 551.3 328.63 547.68C325.55 544.24 319.1 541.13 309.5 538.44C308.637 538.453 307.776 538.352 306.94 538.14C306.04 537.92 305 537.56 303.94 537.14C296.29 535.39 291.84 533.38 290.42 530.98C290.171 530.597 290.005 530.166 289.932 529.715C289.86 529.263 289.883 528.802 290 528.36C290.301 527.139 290.851 525.992 291.615 524.993C292.379 523.993 293.341 523.162 294.44 522.55C296.84 521.26 300.05 520.67 304.29 520.67C308.53 520.67 311.88 521.61 313.92 523.53C314.25 523.98 314.57 524.4 314.8 524.79C315.03 525.18 315.41 525.63 315.7 526.05L315.77 526.15C316.87 529.56 319.24 531.21 323 531.21H335.93C337.59 523.21 336.19 516.56 331.78 511.53" fill="#3383C5"/>
<path d="M349.61 604.38L372.46 517.86C372.867 516.665 372.988 515.392 372.814 514.141C372.641 512.891 372.177 511.699 371.46 510.66C370.747 509.673 369.797 508.881 368.698 508.357C367.599 507.833 366.386 507.593 365.17 507.66H354.37L329.61 601.13C329.06 603.3 328.25 604.69 327.25 605.37C326.695 605.943 326.022 606.388 325.278 606.674C324.533 606.961 323.736 607.082 322.94 607.03H21.17C11.89 607.55 2.69 615.2 0 624.44H318.13C327.43 624.44 334.63 622.85 339.46 619.8C344.35 616.56 347.76 611.34 349.61 604.43" fill="#17519D"/>
<path d="M377.83 486.37C377.121 485.386 376.176 484.596 375.082 484.072C373.989 483.548 372.781 483.307 371.57 483.37H360.78L356.4 499.84H377.22L378.9 493.55C379.297 492.35 379.408 491.073 379.222 489.823C379.036 488.572 378.559 487.383 377.83 486.35" fill="#17519D"/>
<path d="M427.61 575.05C431.76 570.48 434.97 564.05 437.11 555.76L444.61 527.43C446.52 520.1 445.16 514.43 440.43 510.31C435.83 506.45 427.72 504.51 416.43 504.51C406.28 504.51 397.75 506.88 391.04 511.61C385.447 515.346 381.092 520.661 378.53 526.88H398.47C399.993 524.707 402.173 523.081 404.69 522.24C407.301 521.355 410.043 520.915 412.8 520.94C415.696 520.98 418.569 521.462 421.32 522.37C424.4 523.37 425.54 525.55 424.66 528.86C423.56 533.1 418.18 535.92 408.66 537.19C406.78 537.41 405.09 537.64 403.57 537.93C402.307 538.243 401.011 538.408 399.71 538.42C392.281 539.45 385.137 541.974 378.71 545.84C372.81 549.51 368.71 555.73 366.4 564.29C364 573.5 364.9 580.14 369.28 584.07C373.66 588 379.56 590.07 386.82 590.07C391.131 590.041 395.437 589.781 399.72 589.29C404.811 588.752 409.771 587.338 414.38 585.11C419.439 582.754 423.936 579.345 427.57 575.11M409.35 568.92C405.09 572.299 399.786 574.088 394.35 573.98C390.78 573.98 388.26 573.07 386.77 571.39C385.34 569.39 385.05 566.81 385.92 563.6C386.694 560.978 388.082 558.578 389.97 556.6C392.705 554.588 395.833 553.174 399.15 552.45L406.64 550.9C411.09 549.979 415.442 548.64 419.64 546.9L420.25 546.6L418.05 555.03C416.75 560.484 413.71 565.367 409.39 568.94" fill="#17519D"/>
<path d="M528.42 507.91H503.61L468.7 539.04L468.95 538.04L480.79 493.53C481.136 492.374 481.213 491.154 481.016 489.963C480.818 488.772 480.351 487.643 479.65 486.66C478.927 485.676 477.971 484.887 476.868 484.364C475.765 483.84 474.549 483.598 473.33 483.66H462.61L434.44 590.03H455.25L463.52 558.88C464 557.1 465.52 555.88 468.09 554.88C471.43 553.55 472.92 556.4 474.6 562.27L482.19 590.02H507.31L491.31 539.22L528.42 507.91Z" fill="#17519D"/>
<path d="M581.77 575.05C585.92 570.45 589.12 563.97 591.26 555.76L598.72 527.43C600.72 520.1 599.24 514.43 594.57 510.31C589.94 506.45 581.86 504.51 570.52 504.51C560.4 504.51 551.88 506.88 545.16 511.61C539.577 515.367 535.215 520.675 532.61 526.88H552.61C554.133 524.707 556.313 523.081 558.83 522.24C561.452 521.355 564.203 520.915 566.97 520.94C569.837 520.978 572.681 521.46 575.4 522.37C578.54 523.377 579.673 525.54 578.8 528.86C577.67 533.1 572.32 535.92 562.89 537.19C560.97 537.41 559.29 537.64 557.73 537.93C556.481 538.248 555.198 538.412 553.91 538.42C546.481 539.452 539.338 541.976 532.91 545.84C527.04 549.51 522.91 555.73 520.59 564.29C518.16 573.5 519.13 580.14 523.47 584.07C527.81 588 533.75 590.07 541.01 590.07C545.324 590.039 549.634 589.779 553.92 589.29C559.021 588.727 563.988 587.3 568.61 585.07C573.658 582.692 578.154 579.286 581.81 575.07M563.59 568.88C559.3 572.26 553.971 574.048 548.51 573.94C544.98 573.94 542.45 573.03 540.96 571.35C539.53 569.35 539.24 566.74 540.05 563.56C540.872 560.952 542.266 558.561 544.13 556.56C546.881 554.556 550.017 553.143 553.34 552.41L560.86 550.86C565.302 549.911 569.653 548.573 573.86 546.86L574.48 546.56L572.27 554.99C570.961 560.438 567.927 565.316 563.62 568.9" fill="#17519D"/>
<path d="M628.53 533.78C632.19 530.83 637.09 529.34 643.12 529.34H649.92L655.61 507.91H652.95C647.331 507.939 641.74 508.685 636.31 510.13C630.843 511.508 625.647 513.797 620.94 516.9C615.78 520.419 611.335 524.884 607.84 530.06C603.746 536.261 600.743 543.117 598.96 550.33L588.49 590.03H609.27L620.52 547.66C622.17 541.4 624.86 536.66 628.52 533.78" fill="#17519D"/>
<path d="M693.92 511.92L694.92 507.97H682.38L686.17 493.57C686.565 492.375 686.68 491.105 686.507 489.859C686.333 488.612 685.876 487.422 685.17 486.38C684.505 485.414 683.606 484.632 682.557 484.107C681.507 483.582 680.342 483.332 679.17 483.38H668.37L644.25 574.64C642.89 579.86 643.05 583.72 644.74 586.18C646.1 588.1 648.47 589.23 651.74 589.49C656.38 589.85 660.88 590.04 665.13 590.04C667.98 590.04 670.74 589.98 673.33 589.82L677.45 574.29H671.45C669.18 574.29 667.62 573.74 666.81 572.67C666.43 572.066 666.195 571.383 666.122 570.674C666.049 569.965 666.141 569.248 666.39 568.58L678.61 522.26H681.01C683.91 522.22 686.711 521.194 688.95 519.35C691.433 517.533 693.202 514.904 693.95 511.92" fill="#17519D"/>
<path d="M765.35 522.24V520.69C765.296 518.705 764.823 516.754 763.961 514.965C763.099 513.176 761.869 511.589 760.35 510.31C755.71 506.45 747.64 504.51 736.29 504.51C726.18 504.51 717.65 506.88 710.91 511.61C705.329 515.351 700.985 520.666 698.43 526.88H718.36C719.869 524.702 722.045 523.074 724.56 522.24C727.178 521.355 729.926 520.915 732.69 520.94C735.566 520.983 738.419 521.465 741.15 522.37C744.27 523.37 745.43 525.58 744.53 528.86C743.42 533.1 738.08 535.92 728.64 537.19C726.76 537.41 725.01 537.64 723.52 537.93C722.257 538.243 720.961 538.408 719.66 538.42C712.231 539.451 705.088 541.975 698.66 545.84C692.76 549.51 688.66 555.73 686.37 564.29C683.94 573.5 684.88 580.14 689.23 584.07C693.58 588 699.54 590.07 706.8 590.07C711.111 590.04 715.417 589.78 719.7 589.29C724.786 588.744 729.741 587.33 734.35 585.11C739.409 582.749 743.908 579.341 747.55 575.11C751.67 570.54 754.91 564.03 757.05 555.82L764.54 527.49C765.023 525.799 765.305 524.057 765.38 522.3M729.38 568.92C725.115 572.288 719.814 574.076 714.38 573.98C710.84 573.98 708.28 573.07 706.79 571.39C705.4 569.39 705.1 566.78 705.95 563.6C706.713 560.984 708.083 558.585 709.95 556.6C712.711 554.595 715.857 553.182 719.19 552.45L726.71 550.9C731.132 549.959 735.459 548.62 739.64 546.9L740.29 546.6L738.06 555.03C736.768 560.487 733.726 565.372 729.4 568.94" fill="#17519D"/>
</g>
</g>
<defs>
<clipPath id="clip0_1_24">
<rect width="765.35" height="624.38" fill="white"/>
</clipPath>
</defs>
</svg>
